PathFileType	4	(X/Y/Z)	c:/Users/goper/Files/vsCode/490R/osim_files/C11/C11_Static_03.trc
DataRate	CameraRate	NumFrames	NumMarkers	Units                	OrigDataRate	OrigDataStartFrame	OrigNumFrames
120.00	120.00	7	36	mm	120.0	202	536
                Frame#	Time	LPSIS			LASIS			LTH1			LTH2			LTH3			LTH4			LLFE			LMFE			LSH1			LSH2			LSH3			LSH4			LLMAL			LMMAL			LCAL			LMTP5			LTOE			LMTP1			RPSIS			RASIS			RTH1			RTH2			RTH3			RTH4			RLFE			RMFE			RSH1			RSH2			RSH3			RSH4			RLMAL			RMMAL			RCAL			RMTP1			RTOE			RMTP5		
		X1	Y1	Z1	X2	Y2	Z2	X3	Y3	Z3	X4	Y4	Z4	X5	Y5	Z5	X6	Y6	Z6	X7	Y7	Z7	X8	Y8	Z8	X9	Y9	Z9	X10	Y10	Z10	X11	Y11	Z11	X12	Y12	Z12	X13	Y13	Z13	X14	Y14	Z14	X15	Y15	Z15	X16	Y16	Z16	X17	Y17	Z17	X18	Y18	Z18	X19	Y19	Z19	X20	Y20	Z20	X21	Y21	Z21	X22	Y22	Z22	X23	Y23	Z23	X24	Y24	Z24	X25	Y25	Z25	X26	Y26	Z26	X27	Y27	Z27	X28	Y28	Z28	X29	Y29	Z29	X30	Y30	Z30	X31	Y31	Z31	X32	Y32	Z32	X33	Y33	Z33	X34	Y34	Z34	X35	Y35	Z35	X36	Y36	Z36

202	1.67500	-381.72491	1010.88995	451.40625	-209.32976	1012.64807	376.09146	-329.13864	636.90497	299.41968	-326.96896	589.37689	294.78403	-269.90497	635.11743	284.86371	-275.71573	588.78784	285.44638	-306.53799	516.30017	280.73264	-288.49725	504.35992	387.99820	-363.84583	413.17865	267.34534	-364.51227	368.35205	263.16748	-303.41226	408.60931	255.84537	-312.06635	364.38168	253.85712	-343.02081	96.43947	290.31537	-306.14587	110.43245	381.28555	-397.16608	59.22814	348.95044	-234.52119	40.14610	247.66608	-156.81462	57.90869	309.84561	-192.61397	45.48206	359.49564	-375.32809	1024.95886	535.16418	-207.99483	999.85248	608.74237	-299.07739	650.89136	677.78912	-296.59302	607.22388	676.05060	-237.46538	647.27826	666.05829	-244.80791	604.77686	666.73871	-281.66235	517.49121	663.95587	-308.51514	490.62659	554.10724	-354.16245	413.50388	690.03693	-350.35983	367.38834	692.05939	-292.21634	410.15527	685.46924	-297.68771	363.50769	690.64209	-339.33005	98.02569	667.13470	-311.25476	105.53575	572.10779	-400.16956	59.73924	615.31024	-184.28947	49.23142	597.68188	-181.29442	62.35411	647.70471	-222.89410	39.21825	708.09338
203	1.68333	-381.85373	1010.84583	451.33231	-209.44281	1012.70496	376.26712	-328.97452	636.96924	299.57248	-326.74808	589.42389	294.98151	-269.73721	635.29419	285.02020	-275.47653	588.93665	285.64340	-306.17264	516.42413	280.81519	-288.03445	504.96826	387.94128	-363.41058	413.20901	267.37097	-364.05792	368.42471	263.21826	-302.87793	408.64148	255.96736	-311.58817	364.48959	253.98120	-343.01886	96.46896	290.32834	-306.15527	110.47944	381.29642	-397.19858	59.26493	348.93509	-234.51538	40.20236	247.65695	-156.85184	57.93951	309.83960	-192.61592	45.53905	359.49207	-375.62134	1025.00525	535.05518	-208.43808	1000.03290	608.89996	-299.36505	650.97607	677.83661	-296.77780	607.30780	676.08832	-237.64845	647.47107	666.15955	-245.00204	604.93579	666.81622	-281.64719	517.64911	664.05463	-308.37546	490.70114	554.09296	-354.04089	413.54538	690.03967	-350.22223	367.44904	692.08954	-292.17215	410.23770	685.36133	-297.58096	363.54211	690.61816	-339.34830	98.10233	667.14264	-311.23740	105.57539	572.10388	-400.16016	59.82845	615.30554	-184.32666	49.40831	597.53760	-181.29065	62.40867	647.66119	-222.89642	39.27089	708.06494
204	1.69167	-382.04840	1010.79401	451.26096	-209.57872	1012.79449	376.40515	-328.79672	636.99133	299.76270	-326.48734	589.46667	295.16571	-269.54013	635.45459	285.17221	-275.18457	589.10620	285.83505	-305.73599	516.56000	280.93094	-287.44861	505.66568	387.94281	-363.58749	413.28555	267.64304	-363.57355	368.46854	263.21194	-302.36508	408.67154	256.07266	-311.15466	364.54520	254.07245	-343.03110	96.53005	290.32764	-306.18372	110.53288	381.28979	-397.19510	59.28531	348.88898	-234.52647	40.28357	247.62903	-156.84200	58.03709	309.82639	-192.60802	45.62093	359.48843	-375.96237	1025.04443	534.91870	-208.81828	1000.26410	609.03613	-299.61682	651.08893	677.86902	-296.97946	607.40771	676.09210	-237.85860	647.68414	666.28918	-245.17810	605.15204	666.89056	-281.66245	517.84058	664.14349	-308.23291	490.82208	554.07324	-353.93069	413.60037	690.02448	-350.11978	367.49100	692.05090	-292.00040	410.26447	685.42340	-297.46729	363.59555	690.57172	-339.31116	98.17057	667.11774	-311.24963	105.62370	572.09210	-400.13428	59.90663	615.26501	-184.29504	49.35153	597.59192	-181.28220	62.47085	647.63129	-222.87199	39.34531	708.03241
205	1.70000	-382.35419	1010.80438	451.18152	-209.75891	1012.84589	376.52435	-328.54700	637.03308	299.94971	-326.14868	589.52179	295.36920	-269.20169	635.60291	285.35538	-274.82928	589.24518	286.02890	-305.23260	516.68976	281.07422	-287.04507	506.12802	387.93182	-362.95868	413.31766	267.66754	-362.71484	370.19339	261.95737	-301.89871	408.67941	256.16898	-310.68878	364.70139	253.81578	-343.03824	96.60757	290.33533	-306.19016	110.53487	381.31198	-397.19019	59.30372	348.89032	-234.49500	40.34797	247.65306	-156.82812	58.08191	309.87201	-192.62593	45.63341	359.51331	-376.32098	1025.08850	534.77936	-209.20871	1000.41370	609.16687	-299.87216	651.19745	677.92426	-297.18344	607.45996	676.07068	-238.09555	647.85785	666.42719	-245.36378	605.35223	667.01306	-281.66159	518.01324	664.25885	-308.06296	491.00507	554.05914	-353.78131	413.66507	690.03394	-350.00482	367.51419	692.04230	-291.93393	410.38098	685.34906	-297.37363	363.63049	690.60437	-339.30099	98.16293	667.11639	-311.25491	105.65008	572.09827	-400.09375	59.89484	615.27148	-184.28691	49.38113	597.60010	-181.28993	62.48042	647.66278	-222.89320	39.36213	708.04602
206	1.70833	-382.60934	1010.76019	451.14008	-209.94429	1012.88092	376.59595	-328.22900	637.02856	300.16476	-325.71738	589.53485	295.53760	-268.91638	635.66858	285.54361	-274.45282	589.32190	286.24670	-304.63632	516.79401	281.19659	-286.57333	506.62604	387.92865	-361.71857	413.36142	267.50943	-362.19101	370.22958	262.03082	-301.24890	408.66840	256.31369	-310.10712	364.69424	253.92873	-343.03619	96.62482	290.35251	-306.23227	110.53210	381.35330	-397.20981	59.30813	348.90363	-234.52254	40.36064	247.68976	-156.83078	58.12271	309.89801	-192.64793	45.63239	359.53571	-376.73068	1025.13318	534.71698	-209.58823	1000.57037	609.28693	-300.19131	651.28839	677.93939	-297.37903	607.50879	676.05255	-238.38318	647.99304	666.54706	-245.58997	605.50580	667.10077	-281.67099	518.20831	664.36194	-307.84784	491.18564	554.05475	-353.68829	413.72818	690.03284	-349.95908	367.54077	692.02588	-291.90869	410.42429	685.35638	-297.30118	363.68054	690.62909	-339.33698	98.15057	667.12109	-311.26120	105.65582	572.10779	-400.13364	59.89994	615.28522	-184.32014	49.39465	597.62030	-181.30388	62.51147	647.67773	-222.92256	39.34723	708.05811
207	1.71667	-383.04565	1010.74200	451.10590	-210.18916	1012.91913	376.61230	-327.88632	636.94061	300.30399	-325.28409	589.44904	295.68298	-268.60776	635.70935	285.71924	-274.02478	589.33984	286.43896	-304.03278	516.85797	281.34125	-285.93488	507.16156	388.00519	-361.12787	413.36066	267.55417	-361.58661	370.23929	262.08160	-300.58682	408.69183	256.45877	-309.48608	364.71301	254.02258	-343.07166	96.59978	290.38290	-306.21463	110.53708	381.35489	-397.21451	59.25548	348.88342	-234.53552	40.36082	247.71184	-156.86615	58.15226	309.90720	-192.62085	45.62853	359.51193	-377.06003	1025.16284	534.65594	-209.96309	1000.70306	609.35083	-300.45062	651.36267	677.90851	-297.58963	607.53992	676.02478	-238.52814	648.15857	666.56342	-245.75537	605.64929	667.09369	-281.65332	518.39899	664.41357	-307.68692	491.33777	554.05219	-353.60577	413.78220	690.02856	-349.87991	367.59067	691.97797	-291.74487	410.47668	685.37811	-297.20288	363.70187	690.59882	-339.37552	98.17606	667.09979	-311.27142	105.65437	572.11414	-400.08224	59.85130	615.28204	-184.33839	49.51201	597.50269	-181.30556	62.50840	647.65302	-222.92003	39.31878	708.03735
208	1.72500	-383.43445	1010.70844	451.09766	-210.50308	1012.92358	376.61932	-327.19470	636.77844	300.51880	-324.79489	589.30536	295.85300	-268.34024	635.72595	285.84543	-273.53809	589.32568	286.60983	-303.36276	516.84943	281.47339	-285.37784	507.54602	388.12543	-360.51556	413.40750	267.59387	-361.02457	370.27295	262.14896	-299.98648	408.64880	256.55939	-308.81155	364.65186	254.10309	-343.07751	96.56302	290.40768	-306.26849	110.50275	381.39929	-397.26251	59.23387	348.88617	-234.54774	40.31866	247.75627	-156.88376	58.15443	309.92523	-192.67950	45.58476	359.53110	-377.39978	1025.15161	534.65356	-210.34395	1000.82965	609.40625	-300.73209	651.39996	677.87164	-297.84726	607.56274	675.97296	-238.76628	648.23389	666.55811	-245.96272	605.72980	667.06689	-281.71457	518.55457	664.44885	-307.49298	491.43381	554.02838	-353.58673	413.78632	690.00580	-349.87079	367.61868	691.96484	-291.73611	410.45071	685.37299	-297.13428	363.69467	690.59265	-339.41290	98.15579	667.08862	-311.31216	105.61728	572.10852	-400.08084	59.79589	615.33453	-184.37061	49.47625	597.50214	-181.32259	62.48465	647.64301	-222.98325	39.26670	708.03613
